<?xml version="1.0" encoding="UTF-8" standalone="no"?><!DOCTYPE svg PUBLIC "-//W3C//DTD SVG 1.1//EN" "http://www.w3.org/Graphics/SVG/1.1/DTD/svg11.dtd"><svg width="100%" height="100%" viewBox="0 0 757 798" version="1.1" xmlns="http://www.w3.org/2000/svg" xmlns:xlink="http://www.w3.org/1999/xlink" xml:space="preserve" xmlns:serif="http://www.serif.com/" style="fill-rule:evenodd;clip-rule:evenodd;stroke-linecap:round;stroke-linejoin:round;stroke-miterlimit:1.5;"><rect id="アートボード1" x="0" y="0" width="756.201" height="797.473" style="fill:none;"/><clipPath id="_clip1"><rect x="0" y="0" width="756.201" height="797.473"/></clipPath><g clip-path="url(#_clip1)"><path d="M370.41,336.828l-366.211,-169.234l0,460.466l366.211,169.234l0,-460.466Z" style="fill:#fff;stroke:#000;stroke-width:4.17px;"/><path d="M752.783,173.096l-382.373,162.76l0,461.45l382.373,-162.761l-0,-461.449Z" style="fill:#fff;stroke:#000;stroke-width:4.17px;"/><path d="M752.783,173.096l-366.58,-168.629l-382.004,163.127l366.58,168.629l382.004,-163.127Z" style="fill:#fff;stroke:#000;stroke-width:4.17px;"/><path d="M252.687,602.078c5.147,2.638 7.721,5.191 7.721,7.657c-0,2.896 -1.609,5.067 -4.826,6.515c-3.217,1.447 -6.595,1.375 -10.134,-0.218c-4.182,-1.882 -8.177,-4.966 -11.984,-9.253c-3.807,-4.287 -5.71,-8.147 -5.71,-11.578c-0,-4.933 2.359,-8.617 7.078,-11.051c4.718,-2.434 9.705,-2.469 14.959,-0.104c8.472,3.812 15.577,9.208 21.314,16.187c5.737,6.978 8.606,13.631 8.606,19.958c0,7.4 -3.914,12.636 -11.743,15.708c-7.828,3.072 -17.212,2.147 -28.15,-2.776c-10.295,-4.633 -18.579,-11.444 -24.853,-20.433c-6.273,-8.99 -9.41,-18.364 -9.41,-28.123c0,-5.469 0.939,-13.76 2.815,-24.872c1.877,-11.113 2.815,-22.889 2.815,-35.329c0,-32.922 -19.41,-58.118 -58.23,-75.589l-0.644,-5.115c35.282,6.977 52.923,-4.655 52.923,-34.897c-0,-12.118 -5.309,-24.4 -15.925,-36.845c-10.617,-12.445 -22.413,-21.588 -35.389,-27.427c-4.504,-2.027 -9.759,-4.07 -15.764,-6.129c-2.681,27.962 -4.022,70.952 -4.022,128.968c0,5.576 0.322,24.97 0.965,58.182c9.223,4.151 20.108,7.065 32.655,8.744l-0,8.847c-12.118,-2.772 -24.183,-6.861 -36.194,-12.266c-5.576,-2.51 -16.568,-6.384 -32.976,-11.623l0,-9.169l28.633,12.242c-7.828,-86.526 -12.761,-150.784 -14.799,-192.773l-23.807,-6.853l0,-7.561c32.815,9.942 57.212,18.508 73.191,25.699c19.839,8.928 36.327,21.013 49.464,36.255c13.137,15.242 19.705,28.225 19.705,38.948c-0,10.617 -5.067,19.436 -15.201,26.457c-10.134,7.021 -24.263,10.1 -42.386,9.236c19.41,11.202 33.914,22.233 43.512,33.094c9.598,10.861 14.397,23.476 14.397,37.846c-0,7.936 -3.003,18.596 -9.008,31.979c-6.006,13.383 -9.009,24.954 -9.009,34.713c0,7.936 2.521,15.504 7.561,22.705c5.04,7.202 11.957,12.781 20.751,16.738c7.506,3.378 13.78,3.869 18.82,1.473c5.04,-2.397 7.56,-6.545 7.56,-12.443c0,-13.834 -5.951,-23.429 -17.855,-28.786c-2.466,-1.11 -4.799,-0.98 -6.997,0.39c-2.199,1.37 -3.298,3.556 -3.298,6.559c0,3.432 0.778,6.623 2.333,9.575c1.555,2.952 3.351,4.886 5.388,5.803c3.646,1.641 5.362,-1.447 5.148,-9.265Z" style="fill-rule:nonzero;"/><path d="M632.15,349.443c-8.579,4.456 -15.925,8.51 -22.037,12.161c0.429,11.815 1.421,27.823 2.976,48.024c1.555,20.201 2.332,39.363 2.332,57.486c0,19.732 -2.306,40.277 -6.917,61.633c-4.611,21.357 -12.225,39.126 -22.842,53.307c-10.616,14.181 -22.788,24.408 -36.515,30.68c-12.654,5.783 -24.102,6.296 -34.343,1.538c-10.241,-4.757 -15.362,-13.194 -15.362,-25.312c0,-12.333 4.88,-25.555 14.638,-39.665c9.759,-14.111 19.357,-23.323 28.794,-27.635c9.008,-4.117 16.756,-4.36 23.244,-0.729c6.488,3.63 9.732,9.842 9.732,18.636c-0,5.791 -2.922,12.488 -8.767,20.092c-5.844,7.604 -11.716,12.753 -17.614,15.448c-4.718,2.157 -9.115,2.209 -13.19,0.157c-4.075,-2.053 -6.113,-5.438 -6.113,-10.156c0,-3.754 1.18,-7.376 3.539,-10.867c2.359,-3.491 5.416,-6.094 9.169,-7.809c6.649,-3.038 9.973,-1.716 9.973,3.968c-2.788,0.631 -4.879,1.265 -6.273,1.902c-1.394,0.637 -2.628,1.871 -3.7,3.701c-1.072,1.831 -1.609,3.497 -1.609,4.998c0,3.539 0.805,6.147 2.413,7.825c1.609,1.678 3.217,2.149 4.826,1.414c3.646,-1.666 6.595,-5.319 8.847,-10.96c2.252,-5.64 3.378,-10.659 3.378,-15.055c0,-7.293 -1.501,-12.558 -4.504,-15.798c-3.003,-3.239 -7.078,-3.682 -12.225,-1.33c-7.185,3.283 -13.271,10.032 -18.257,20.246c-4.987,10.215 -7.48,20.791 -7.48,31.73c-0,12.439 2.761,21.258 8.284,26.455c5.523,5.198 13.056,5.616 22.6,1.255c16.193,-7.4 28.66,-20.094 37.4,-38.083c8.74,-17.988 13.11,-44.355 13.11,-79.1c-0,-15.657 -2.038,-34.512 -6.113,-56.564c-4.075,-22.052 -8.632,-40.291 -13.673,-54.717c-4.396,2.652 -16.032,8.72 -34.906,18.203l0,-8.204c29.598,-14.491 49.437,-24.709 59.518,-30.656c10.08,-5.947 19.303,-11.957 27.667,-18.032l0,9.813Z" style="fill-rule:nonzero;"/><path d="M416.602,230.429c-27.333,10.649 -54.111,16.4 -80.334,17.253c-26.223,0.853 -49.415,-3.257 -69.576,-12.33c-22.306,-10.038 -30.862,-24.639 -25.668,-43.803c5.194,-19.164 22.64,-35.04 52.336,-47.627c18.408,-7.802 43.516,-14.626 75.326,-20.472c31.811,-5.845 61.972,-8.438 90.485,-7.778c28.512,0.66 51.508,4.923 68.988,12.789c16.301,7.336 24.452,15.267 24.455,23.794c0.003,8.527 -5.947,15.313 -17.85,20.358c-11.413,4.837 -26.359,7.119 -44.838,6.846c-18.48,-0.274 -33.136,-2.847 -43.967,-7.722c-6.434,-2.895 -10.011,-7.025 -10.732,-12.39c-0.72,-5.364 3.153,-9.841 11.621,-13.43c8.099,-3.433 16.467,-5.082 25.106,-4.948c8.638,0.134 16.228,1.673 22.769,4.617c4.826,2.171 7.34,4.831 7.542,7.978c0.203,3.148 -1.475,5.476 -5.034,6.984c-5.768,2.445 -11.591,3.953 -17.471,4.524c-5.88,0.571 -10.321,0.181 -13.324,-1.171c-3.432,-1.544 -3.942,-3.436 -1.532,-5.676c2.144,0.965 5.773,1.606 10.885,1.923c5.112,0.316 8.772,0.007 10.981,-0.93c7.854,-3.329 9.743,-5.91 5.668,-7.744c-4.826,-2.172 -11.539,-3.262 -20.139,-3.272c-8.6,-0.009 -15.906,1.26 -21.919,3.809c-4.172,1.768 -6.461,4.572 -6.866,8.411c-0.406,3.839 2.028,6.945 7.302,9.318c7.317,3.293 17.642,4.348 30.976,3.163c13.333,-1.185 25.092,-3.936 35.277,-8.253c10.308,-4.369 16.382,-9.759 18.222,-16.17c1.84,-6.411 -2.665,-12.057 -13.512,-16.939c-22.554,-10.149 -51.687,-13.474 -87.399,-9.975c-35.713,3.5 -69.828,12.142 -102.348,25.925c-35.464,15.032 -57.551,31.072 -66.26,48.117c-8.709,17.046 -2.125,30.492 19.752,40.337c13.297,5.984 28.064,8.581 44.299,7.791c16.236,-0.79 31.778,-4.332 46.626,-10.626c5.4,-2.288 13.377,-6.044 23.931,-11.268l16.222,8.587Z" style="fill-rule:nonzero;"/></g></svg>
